<svg viewBox="1 1 512 512" xmlns="http://www.w3.org/2000/svg"><path d="M512 256c0 141.387-114.613 256-256 256S0 397.387 0 256 114.613 0 256 0s256 114.613 256 256zm0 0" fill="#66ccb5"/><path d="M232.492 430.61h47.016v61.12h-47.016zm0 0" fill="#3b3b3b"/><path d="M503.828 86.7v233.675a252.903 252.903 0 0 1-20.898 54.2 255.778 255.778 0 0 1-29.61 44.534 256.365 256.365 0 0 1-19.343 20.899H78.023a256.365 256.365 0 0 1-19.343-20.899 255.778 255.778 0 0 1-29.61-44.535 252.903 252.903 0 0 1-20.898-54.199V86.699c0-10.015 8.117-18.133 18.129-18.133h459.398c10.012 0 18.13 8.118 18.13 18.133zm0 0" fill="#4a4a4a"/><path d="M482.93 89.465v285.11a255.778 255.778 0 0 1-29.61 44.534H58.68a255.778 255.778 0 0 1-29.61-44.535V89.464zm0 0" fill="#fff"/><path d="M373.887 483.297C338.597 501.633 298.516 512 256 512s-82.598-10.367-117.887-28.703c28.453-5.39 70.719-8.809 117.887-8.809 47.176 0 89.434 3.418 117.887 8.809zm0 0" fill="#4a4a4a"/><path d="M195.133 139.375h255.855v90.71H195.133zm0 0" fill="#ffd861"/><path d="M81.223 193.813c0 7.082-5.739 12.824-12.82 12.824-7.083 0-12.821-5.742-12.821-12.825s5.738-12.82 12.82-12.82 12.82 5.738 12.82 12.82zm76.137 0c0 7.082-5.743 12.824-12.825 12.824-7.078 0-12.82-5.742-12.82-12.825s5.742-12.82 12.82-12.82c7.082 0 12.824 5.738 12.824 12.82zm0 0" fill="#e9bd99"/><path d="M106.578 240.313c-21.086 0-38.176-17.09-38.176-38.172v-49.004h76.348v49.004c0 21.082-17.09 38.172-38.172 38.172zm0 0" fill="#f6d2af"/><path d="M112.04 239.926a38.159 38.159 0 0 1-5.462.387c-21.082 0-38.176-17.086-38.176-38.172v-49.004h10.922v49.004c0 19.226 14.219 35.136 32.715 37.785zm0 0" fill="#e9bd99"/><path d="M76.469 161.422l-11.817 5.945v27.059c6.524 0 11.817-5.293 11.817-11.817zm0 0" fill="#3b3b3b"/><path d="M136.688 140.605H148.5v53.82c-6.523 0-11.813-5.288-11.813-11.816zm0 0" fill="#4a4a4a"/><path d="M131.133 167.367h-66.48c0-21.11 17.109-38.219 38.218-38.219h66.48c0 21.106-17.109 38.22-38.218 38.22zm0 0" fill="#4a4a4a"/><path d="M120.797 129.148H102.87c-21.11 0-38.219 17.11-38.219 38.22h17.926c0-21.11 17.11-38.22 38.219-38.22zm0 0" fill="#3b3b3b"/><path d="M97.281 189.965a7.137 7.137 0 0 0-14.273 0m46.98 0a7.137 7.137 0 0 0-14.273 0" fill="#333"/><path d="M88.738 208.2c0 9.855 7.985 17.84 17.84 17.84 9.852 0 17.84-7.985 17.84-17.84m117.207-13.098c.395.476.633 1.43.633 2.3 0 2.543-2.54 4.293-4.844 4.293-.875 0-2.148-.16-3.023-1.507l-5.164-7.946-5.243 8.024c-.718 1.191-1.668 1.43-2.78 1.43-1.911 0-5.009-1.508-5.009-4.13 0-1.035.399-1.91.953-2.543l5.247-7.468-8.262-2.387c-1.832-.395-2.703-1.984-2.703-4.05 0-2.067 1.828-4.372 4.367-4.372.238 0 .637 0 1.195.238l8.344 2.703-.399-8.105c.079-2.625 2.067-3.812 4.29-3.812 2.226 0 4.132 1.187 4.21 3.812l-.316 8.266 8.422-2.864a3.255 3.255 0 0 1 1.191-.238c2.465 0 4.133 2.625 4.133 4.926 0 1.59-.793 3.101-2.699 3.496l-8.106 1.91zm46.957 0c.395.476.633 1.43.633 2.3 0 2.543-2.54 4.293-4.848 4.293-.87 0-2.144-.16-3.02-1.507l-5.163-7.946-5.243 8.024c-.718 1.191-1.668 1.43-2.78 1.43-1.911 0-5.009-1.508-5.009-4.13 0-1.035.399-1.91.953-2.543l5.247-7.468-8.266-2.387c-1.828-.395-2.7-1.984-2.7-4.05 0-2.067 1.829-4.372 4.368-4.372.238 0 .637 0 1.195.238l8.34 2.703-.394-8.105c.078-2.625 2.062-3.812 4.289-3.812 2.226 0 4.132 1.187 4.21 3.812l-.316 8.266 8.422-2.864a3.24 3.24 0 0 1 1.191-.238c2.465 0 4.133 2.625 4.133 4.926 0 1.59-.793 3.101-2.699 3.496l-8.105 1.91zm46.958 0c.394.476.632 1.43.632 2.3 0 2.543-2.543 4.293-4.848 4.293-.87 0-2.144-.16-3.02-1.507l-5.163-7.946-5.243 8.024c-.718 1.191-1.668 1.43-2.785 1.43-1.906 0-5.004-1.508-5.004-4.13 0-1.035.399-1.91.954-2.543l5.246-7.468-8.266-2.387c-1.828-.395-2.7-1.984-2.7-4.05 0-2.067 1.825-4.372 4.368-4.372.238 0 .637 0 1.191.238l8.344 2.703-.398-8.105c.082-2.625 2.066-3.812 4.293-3.812s4.132 1.187 4.21 3.812l-.316 8.266 8.422-2.864a3.24 3.24 0 0 1 1.191-.238c2.465 0 4.133 2.625 4.133 4.926 0 1.59-.793 3.101-2.703 3.496l-8.105 1.91zm46.952 0c.399.476.637 1.43.637 2.3 0 2.543-2.543 4.293-4.848 4.293-.875 0-2.144-.16-3.02-1.507l-5.163-7.946-5.246 8.024c-.715 1.191-1.668 1.43-2.782 1.43-1.906 0-5.004-1.508-5.004-4.13 0-1.035.395-1.91.954-2.543l5.242-7.468-8.262-2.387c-1.828-.395-2.703-1.984-2.703-4.05 0-2.067 1.828-4.372 4.371-4.372.238 0 .637 0 1.191.238l8.344 2.703-.398-8.105c.078-2.625 2.066-3.812 4.293-3.812 2.222 0 4.129 1.187 4.21 3.812l-.32 8.266 8.426-2.864a3.24 3.24 0 0 1 1.191-.238c2.465 0 4.133 2.625 4.133 4.926 0 1.59-.797 3.101-2.703 3.496l-8.105 1.91zm46.958 0c.398.476.636 1.43.636 2.3 0 2.543-2.543 4.293-4.848 4.293-.875 0-2.144-.16-3.02-1.507l-5.163-7.946-5.246 8.024c-.715 1.191-1.668 1.43-2.782 1.43-1.906 0-5.004-1.508-5.004-4.13 0-1.035.395-1.91.954-2.543l5.242-7.468-8.262-2.387c-1.828-.395-2.703-1.984-2.703-4.05 0-2.067 1.828-4.372 4.371-4.372.238 0 .637 0 1.191.238l8.344 2.703-.398-8.105c.078-2.625 2.066-3.812 4.293-3.812 2.222 0 4.129 1.187 4.21 3.812l-.32 8.266 8.426-2.864a3.224 3.224 0 0 1 1.192-.238c2.464 0 4.128 2.625 4.128 4.926 0 1.59-.793 3.101-2.699 3.496l-8.105 1.91zm0 0" fill="#fff"/><path d="M195.133 276.965h255.855v90.707H195.133zm0 0" fill="#ffd861"/><path d="M241.625 332.688c.395.476.633 1.43.633 2.304 0 2.543-2.54 4.293-4.844 4.293-.875 0-2.148-.16-3.023-1.512l-5.164-7.945-5.243 8.027c-.718 1.192-1.668 1.43-2.78 1.43-1.911 0-5.009-1.512-5.009-4.133 0-1.03.399-1.906.953-2.543l5.247-7.468-8.262-2.383c-1.832-.395-2.703-1.985-2.703-4.051s1.828-4.371 4.367-4.371c.238 0 .637 0 1.195.238l8.344 2.703-.399-8.105c.079-2.625 2.067-3.817 4.29-3.817 2.226 0 4.132 1.192 4.21 3.817l-.316 8.262 8.422-2.86a3.255 3.255 0 0 1 1.191-.238c2.465 0 4.133 2.621 4.133 4.926 0 1.59-.793 3.101-2.699 3.496l-8.106 1.906zm46.957 0c.395.476.633 1.43.633 2.304 0 2.543-2.54 4.293-4.848 4.293-.87 0-2.144-.16-3.02-1.512l-5.163-7.945-5.243 8.027c-.718 1.192-1.668 1.43-2.78 1.43-1.911 0-5.009-1.512-5.009-4.133 0-1.03.399-1.906.953-2.543l5.247-7.468-8.266-2.383c-1.828-.395-2.7-1.985-2.7-4.051s1.829-4.371 4.368-4.371c.238 0 .637 0 1.195.238l8.34 2.703-.394-8.105c.078-2.625 2.062-3.817 4.289-3.817 2.226 0 4.132 1.192 4.21 3.817l-.316 8.262 8.422-2.86a3.24 3.24 0 0 1 1.191-.238c2.465 0 4.133 2.621 4.133 4.926 0 1.59-.793 3.101-2.699 3.496l-8.105 1.906zm46.958 0c.394.476.632 1.43.632 2.304 0 2.543-2.543 4.293-4.848 4.293-.87 0-2.144-.16-3.02-1.512l-5.163-7.945-5.243 8.027c-.718 1.192-1.668 1.43-2.785 1.43-1.906 0-5.004-1.512-5.004-4.133 0-1.03.399-1.906.954-2.543l5.246-7.468-8.266-2.383c-1.828-.395-2.7-1.985-2.7-4.051s1.825-4.371 4.368-4.371c.238 0 .637 0 1.191.238l8.344 2.703-.398-8.105c.082-2.625 2.066-3.817 4.293-3.817s4.132 1.192 4.21 3.817l-.316 8.262 8.422-2.86a3.24 3.24 0 0 1 1.191-.238c2.465 0 4.133 2.621 4.133 4.926 0 1.59-.793 3.101-2.703 3.496l-8.105 1.906zm46.952 0c.399.476.637 1.43.637 2.304 0 2.543-2.543 4.293-4.848 4.293-.875 0-2.144-.16-3.02-1.512l-5.163-7.945-5.246 8.027c-.715 1.192-1.668 1.43-2.782 1.43-1.906 0-5.004-1.512-5.004-4.133 0-1.03.395-1.906.954-2.543l5.242-7.468-8.262-2.383c-1.828-.395-2.703-1.985-2.703-4.051s1.828-4.371 4.371-4.371c.238 0 .637 0 1.191.238l8.344 2.703-.398-8.105c.078-2.625 2.066-3.817 4.293-3.817 2.222 0 4.129 1.192 4.21 3.817l-.32 8.262 8.426-2.86a3.24 3.24 0 0 1 1.191-.238c2.465 0 4.133 2.621 4.133 4.926 0 1.59-.797 3.101-2.703 3.496l-8.105 1.906zm46.958 0c.398.476.636 1.43.636 2.304 0 2.543-2.543 4.293-4.848 4.293-.875 0-2.144-.16-3.02-1.512l-5.163-7.945-5.246 8.027c-.715 1.192-1.668 1.43-2.782 1.43-1.906 0-5.004-1.512-5.004-4.133 0-1.03.395-1.906.954-2.543l5.242-7.468-8.262-2.383c-1.828-.395-2.703-1.985-2.703-4.051s1.828-4.371 4.371-4.371c.238 0 .637 0 1.191.238l8.344 2.703-.398-8.105c.078-2.625 2.066-3.817 4.293-3.817 2.222 0 4.129 1.192 4.21 3.817l-.32 8.262 8.426-2.86a3.224 3.224 0 0 1 1.192-.238c2.464 0 4.128 2.621 4.128 4.926 0 1.59-.793 3.101-2.699 3.496l-8.105 1.906zm0 0" fill="#fff"/><path d="M147.676 337.008H77.258v-35.442c0-19.414 15.793-35.207 35.207-35.207s35.21 15.793 35.21 35.207zm-56.813-13.606h43.207v-21.836c0-11.914-9.691-21.605-21.605-21.605-11.91 0-21.602 9.691-21.602 21.605zm0 0" fill="#e2e2e2"/><path d="M70.457 321.234h84.02v57.043h-84.02zm0 0" fill="#4a4a4a"/></svg>