<svg viewBox="0 0 464 464.231" xmlns="http://www.w3.org/2000/svg"><path d="M438.578 207.367a32.301 32.301 0 0 1 2.266-37.71c36.289-44.485 29.648-109.966-14.836-146.255-44.485-36.289-109.965-29.648-146.254 14.836-15.965 20.293-42.387 29.278-67.414 22.922-54.035-14.992-111.727 4.738-145.262 49.676-33.539 44.941-36.031 105.863-6.281 153.394h49.598a208.223 208.223 0 0 0 65.722-10.671l88-29.329v48h8c13.254 0 24 10.747 24 24v32c0 13.254-10.746 24-24 24h-8v48l-88-29.328a208.805 208.805 0 0 0-34-8.175c24.906 57.894 80.153 96.953 143.04 101.132 62.89 4.18 122.816-27.226 155.163-81.32 32.352-54.09 31.668-121.746-1.765-175.172zm0 0" fill="#a0dce8"/><path d="M200.117 216.23c8.836 0 16-7.164 16-16v-40c0-8.835-7.164-16-16-16h-8c-8.84 0-16-7.164-16-16v-24c0-8.835-7.164-16-16-16-8.84 0-16 7.165-16 16v24c0 8.836-7.164 16-16 16h-8v72zm0 0" fill="#fff5e0"/><path d="M272.117 352.23c13.254 0 24-10.746 24-24v-32c0-13.253-10.746-24-24-24h-8v80zm0 0" fill="#ffb41f"/><path d="M360.117 168.23c35.344 0 64-28.652 64-64 0-35.347-28.656-64-64-64-35.347 0-64 28.653-64 64 0 35.348 28.653 64 64 64zm0 0" fill="#fff5e0"/><path d="M344.117 72.23v64l48-32zm-224 144v-80h-32v88h32zm0 0" fill="#1cc8eb"/><path d="M403.828 282.918l-13.09 8.719-13.078-8.719a16.001 16.001 0 0 0-20.191 2l-3.41 3.41c-6.25 6.246-6.25 16.383 0 22.629l36.68 36.68 36.687-36.68c6.254-6.246 6.254-16.383 0-22.629l-3.406-3.41a16.002 16.002 0 0 0-20.192-2zm0 0" fill="#e32210"/><path d="M48.117 360.23l9.317 96a8 8 0 0 0 8 8h46.683a7.987 7.987 0 0 0 6.067-2.792 7.992 7.992 0 0 0 1.836-6.422L96.117 360.23zm0 0v-96c-26.512 0-48 21.493-48 48 0 26.508 21.488 48 48 48zm0 0" fill="#8c8c8c"/><path d="M80.117 360.23v-96h-32v96zm0 0" fill="#ffb41f"/><path d="M176.117 253.559a208.193 208.193 0 0 1-65.754 10.671H80.117v96h30.246a212.259 212.259 0 0 1 65.754 10.672l88 29.328v-176zm0 0" fill="#d9d9d9"/><path d="M104.188 392.23l-8.07-32h-48zm0 0" fill="#7a7a7a"/><path d="M360.117 160.23c-33.765-.039-61.691-26.3-63.8-60-.083 1.329-.2 2.649-.2 4 0 35.348 28.653 64 64 64 35.344 0 64-28.652 64-64 0-1.351-.12-2.671-.203-4-2.11 33.7-30.035 59.961-63.797 60zm-240 56h80c8.836 0 16-7.164 16-16v-24a58.554 58.554 0 0 1-51.777 32.36l-44.223.441zm0 0" fill="#e6e6e6"/><path d="M88.117 208.23h32v16h-32zm0 0" fill="#1bc1e3"/><path d="M390.738 347.637l36.688-36.68c6.254-6.246 6.254-16.383 0-22.629l-3.406-3.41a16.002 16.002 0 0 0-17.938-3.2 15.945 15.945 0 0 1 4.68 3.2l3.41 3.41c8.168 8.168 3.137 19.2-2.36 27.254-3.402 4.961-6.648 10.04-9.968 15.066a108.836 108.836 0 0 1-11.106 16.989zm0 0" fill="#c91e0e"/><path d="M298.297 230.531l4.121-16.472c1.074-4.29 5.418-6.895 9.7-5.82 4.284 1.07 6.886 5.413 5.816 9.698l-4.125 16.477a7.993 7.993 0 0 1-9.7 5.82c-4.28-1.07-6.886-5.414-5.812-9.703zm25.403 14.965l17.687-8.844a7.995 7.995 0 0 1 10.73 3.578 8 8 0 0 1-3.578 10.735l-17.687 8.844a7.995 7.995 0 0 1-10.73-3.579 8 8 0 0 1 3.577-10.734zm-19.59 146.738a7.997 7.997 0 0 1 9.695 5.82l4.12 16.477a8.004 8.004 0 0 1-5.816 9.703 8.002 8.002 0 0 1-9.699-5.824l-4.12-16.476a8 8 0 0 1 5.82-9.7zm16.007-16.007a8.006 8.006 0 0 1 10.735-3.579l17.687 8.844a8 8 0 0 1 3.578 10.735 8 8 0 0 1-10.734 3.578l-17.688-8.844a8.006 8.006 0 0 1-3.578-10.734zm0 0" fill="#ffb41f"/><path d="M16.117 208.23h-16c0-118.398 70.504-192 184-192v16c-103.625 0-168 67.442-168 176zm0 0" fill="#1cc8eb"/><path d="M112.117 320.23h16a8 8 0 0 1 0 16h-16c-4.422 0-8-3.582-8-8s3.578-8 8-8zm0-32h16a8 8 0 0 1 0 16h-16c-4.422 0-8-3.582-8-8s3.578-8 8-8zm0 0" fill="#8c8c8c"/><path d="M264.117 272.23h8v80h-8zm0 0" fill="#de9a10"/></svg>