<svg height="512" viewBox="0 0 58 58" width="512" xmlns="http://www.w3.org/2000/svg"><g id="022---3-Door-Coat-Locker" fill="none"><g fill="#cbb292"><path id="Shape" d="m4 48h4v8c0 1.1045695-.8954305 2-2 2s-2-.8954305-2-2z"/><path id="Shape" d="m50 48h4v8c0 1.1045695-.8954305 2-2 2s-2-.8954305-2-2z"/><path id="Shape" d="m18 48h4v8c0 1.1045695-.8954305 2-2 2s-2-.8954305-2-2z"/><path id="Shape" d="m36 48h4v8c0 1.1045695-.8954305 2-2 2s-2-.8954305-2-2z"/></g><path id="Rectangle-path" d="m4 46.63h4v4.37h-4z" fill="#a59078"/><path id="Rectangle-path" d="m18 46.63h4v4.37h-4z" fill="#a59078"/><path id="Rectangle-path" d="m36 46.63h4v4.37h-4z" fill="#a59078"/><path id="Rectangle-path" d="m50 46.63h4v4.37h-4z" fill="#a59078"/><path id="Shape" d="m48 0h-38c-1.1045695 0-2 .8954305-2 2v43h42v-43c0-1.1045695-.8954305-2-2-2z" fill="#ff5364"/><path id="Rectangle-path" d="m22 0h14v44h-14z" fill="#26b99a"/><path id="Shape" d="m14 31h-1c-1.1045695 0-2-.8954305-2-2v-8c0-1.1045695.8954305-2 2-2h1c.5522847 0 1 .4477153 1 1s-.4477153 1-1 1h-1v8h1c.5522847 0 1 .4477153 1 1s-.4477153 1-1 1z" fill="#802d40"/><path id="Shape" d="m18 9h-6c-.5522847 0-1-.44771525-1-1s.4477153-1 1-1h6c.5522847 0 1 .44771525 1 1s-.4477153 1-1 1z" fill="#802d40"/><path id="Shape" d="m18 5h-6c-.5522847 0-1-.44771525-1-1s.4477153-1 1-1h6c.5522847 0 1 .44771525 1 1s-.4477153 1-1 1z" fill="#802d40"/><path id="Shape" d="m32 9h-6c-.5522847 0-1-.44771525-1-1s.4477153-1 1-1h6c.5522847 0 1 .44771525 1 1s-.4477153 1-1 1z" fill="#33907c"/><path id="Shape" d="m32 5h-6c-.5522847 0-1-.44771525-1-1s.4477153-1 1-1h6c.5522847 0 1 .44771525 1 1s-.4477153 1-1 1z" fill="#33907c"/><path id="Shape" d="m46 9h-6c-.5522847 0-1-.44771525-1-1s.4477153-1 1-1h6c.5522847 0 1 .44771525 1 1s-.4477153 1-1 1z" fill="#802d40"/><path id="Shape" d="m46 5h-6c-.5522847 0-1-.44771525-1-1s.4477153-1 1-1h6c.5522847 0 1 .44771525 1 1s-.4477153 1-1 1z" fill="#802d40"/><rect id="Rectangle-path" fill="#cc6f56" height="4" rx="2" width="58" y="44"/><circle id="Oval" cx="12" cy="34" fill="#802d40" r="1"/><path id="Shape" d="m28 31h-1c-1.1045695 0-2-.8954305-2-2v-8c0-1.1045695.8954305-2 2-2h1c.5522847 0 1 .4477153 1 1s-.4477153 1-1 1h-1v8h1c.5522847 0 1 .4477153 1 1s-.4477153 1-1 1z" fill="#33907c"/><circle id="Oval" cx="26" cy="34" fill="#33907c" r="1"/><path id="Shape" d="m42 31h-1c-1.1045695 0-2-.8954305-2-2v-8c0-1.1045695.8954305-2 2-2h1c.5522847 0 1 .4477153 1 1s-.4477153 1-1 1h-1v8h1c.5522847 0 1 .4477153 1 1s-.4477153 1-1 1z" fill="#802d40"/><circle id="Oval" cx="40" cy="34" fill="#802d40" r="1"/></g></svg>