<svg height="512" viewBox="0 0 60 60" width="512" xmlns="http://www.w3.org/2000/svg"><g id="027---Protecting-Assets" fill="none"><circle id="Oval" cx="49" cy="49" fill="#f3d55b" r="10"/><path id="Shape" d="m30 5c-16.21 0-27.95 10.7-29 20.3-.0387607.2528631.07923308.50406.29859406.6356766.21936097.1316166.49653173.1175184.70140594-.0356766 2.30118155-1.7733017 5.09703243-2.7867977 8-2.9 6 0 9 3 9 3s2-4 11-4 11 4 11 4 3-3 9-3c2.9029676.1132023 5.6988185 1.1266983 8 2.9.2048742.153195.482045.1672932.7014059.0356766.219361-.1316166.3373548-.3828135.2985941-.6356766-1-9.6-12.79-20.3-29-20.3z" fill="#c03a2b"/><path id="Shape" d="m49 54.5c-2.54 0-3.53-.87-3.71-1-.2679492-.2536586-.3802192-.6309979-.2945191-.989878.0857002-.3588801.3563507-.6447785.71-.75.3536494-.1052216.7365699-.0137806 1.0045191.239878.69943.3832507 1.4944798.5568423 2.29.5.75 0 2-.16 2-1.25 0-.84-.32-1-2.12-1.26-1.45-.18-3.88-.48-3.88-3.24 0-2.11 2.06-3.25 4-3.25 1.5339698-.099361 3.0073361.6145382 3.88 1.88.2761424.4832492.1082491 1.0988576-.375 1.375-.4832492.2761423-1.0988576.1082491-1.375-.375-.86-1.33-4.13-1-4.13.39 0 .84.32 1 2.12 1.26 1.45.18 3.88.48 3.88 3.24 0 1.48-1 3.23-4 3.23z" fill="#b19046"/><path id="Shape" d="m49 56c-.5522847 0-1-.4477153-1-1v-1.5c0-.5522847.4477153-1 1-1s1 .4477153 1 1v1.5c0 .5522847-.4477153 1-1 1z" fill="#b19046"/><path id="Shape" d="m49 45.5c-.5522847 0-1-.4477153-1-1v-1.5c0-.5522847.4477153-1 1-1s1 .4477153 1 1v1.5c0 .5522847-.4477153 1-1 1z" fill="#b19046"/><path id="Shape" d="m32 60c-1.6568542 0-3-1.3431458-3-3v-35c0-.5522847.4477153-1 1-1s1 .4477153 1 1v35c0 .5522847.4477153 1 1 1s1-.4477153 1-1v-6c0-.5522847.4477153-1 1-1s1 .4477153 1 1v6c0 1.6568542-1.3431458 3-3 3z" fill="#cb8252"/><path id="Shape" d="m30 5c-11 5-11 21-11 21s-3-3-9-3c-2.90296757.1132023-5.69881845 1.1266983-8 2.9-.20487421.153195-.48204497.1672932-.70140594.0356766-.21936098-.1316166-.33735476-.3828135-.29859406-.6356766 1.05-9.6 12.79-20.3 29-20.3z" fill="#f0c419"/><path id="Shape" d="m41 26s-2-4-11-4-11 4-11 4 0-16 11-21c11 5 11 21 11 21z" fill="#3b97d3"/><path id="Shape" d="m30 1c-1.48 0-2.7 1.78-2.95 4.12 1.9634124-.16000184 3.9365876-.16000184 5.9 0-.25-2.34-1.47-4.12-2.95-4.12z" fill="#e57e25"/><path id="Shape" d="m49 60c-6.0751322 0-11-4.9248678-11-11s4.9248678-11 11-11 11 4.9248678 11 11-4.9248678 11-11 11zm0-20c-3.6401602 0-6.9218868 2.1927796-8.3149158 5.5558491s-.6230272 7.23413 1.9509548 9.8081119c2.5739819 2.573982 6.4450424 3.3439838 9.8081119 1.9509548s5.5558491-4.6747556 5.5558491-8.3149158c0-4.9705627-4.0294373-9-9-9z" fill="#f0c419"/><circle id="Oval" cx="11" cy="49" fill="#f3d55b" r="10"/><path id="Shape" d="m11 54.5c-2.54 0-3.53-.87-3.71-1-.41421356-.3921222-.43212217-1.0457864-.04-1.46s1.04578644-.4321222 1.46-.04c.69943002.3832507 1.4944798.5568423 2.29.5.75 0 2-.16 2-1.25 0-.84-.32-1-2.12-1.26-1.45-.18-3.88-.48-3.88-3.24 0-2.11 2.06-3.25 4-3.25 1.5339698-.099361 3.0073361.6145382 3.88 1.88.2761424.4832492.1082491 1.0988576-.375 1.375-.4832492.2761423-1.0988576.1082491-1.375-.375-.86-1.38-4.13-1.06-4.13.37 0 .84.32 1 2.12 1.26 1.45.18 3.88.48 3.88 3.24 0 1.5-1 3.25-4 3.25z" fill="#b19046"/><path id="Shape" d="m11 56c-.5522847 0-1-.4477153-1-1v-1.5c0-.5522847.4477153-1 1-1s1 .4477153 1 1v1.5c0 .5522847-.4477153 1-1 1z" fill="#b19046"/><path id="Shape" d="m11 45.5c-.5522847 0-1-.4477153-1-1v-1.5c0-.5522847.4477153-1 1-1s1 .4477153 1 1v1.5c0 .5522847-.4477153 1-1 1z" fill="#b19046"/><path id="Shape" d="m11 60c-6.07513225 0-11-4.9248678-11-11s4.92486775-11 11-11c6.0751322 0 11 4.9248678 11 11s-4.9248678 11-11 11zm0-20c-3.6401602 0-6.92188679 2.1927796-8.31491579 5.5558491s-.62302721 7.23413 1.95095476 9.8081119c2.57398196 2.573982 6.44504243 3.3439838 9.80811193 1.9509548s5.5558491-4.6747556 5.5558491-8.3149158c0-4.9705627-4.0294373-9-9-9z" fill="#f0c419"/><g fill="#9fc9d3"><path id="Shape" d="m59 16c-.5522847 0-1-.4477153-1-1v-2c0-.5522847.4477153-1 1-1s1 .4477153 1 1v2c0 .5522847-.4477153 1-1 1z"/><path id="Shape" d="m55 10c-.5522847 0-1-.44771525-1-1v-2c0-.55228475.4477153-1 1-1s1 .44771525 1 1v2c0 .55228475-.4477153 1-1 1z"/><path id="Shape" d="m50 6c-.5522847 0-1-.44771525-1-1v-2c0-.55228475.4477153-1 1-1s1 .44771525 1 1v2c0 .55228475-.4477153 1-1 1z"/><path id="Shape" d="m44 4c-.5522847 0-1-.44771525-1-1v-2c0-.55228475.4477153-1 1-1s1 .44771525 1 1v2c0 .55228475-.4477153 1-1 1z"/><path id="Shape" d="m59 4c-.5522847 0-1-.44771525-1-1v-2c0-.55228475.4477153-1 1-1s1 .44771525 1 1v2c0 .55228475-.4477153 1-1 1z"/><path id="Shape" d="m1 16c-.55228475 0-1-.4477153-1-1v-2c0-.5522847.44771525-1 1-1s1 .4477153 1 1v2c0 .5522847-.44771525 1-1 1z"/><path id="Shape" d="m5 10c-.55228475 0-1-.44771525-1-1v-2c0-.55228475.44771525-1 1-1s1 .44771525 1 1v2c0 .55228475-.44771525 1-1 1z"/><path id="Shape" d="m10 6c-.55228475 0-1-.44771525-1-1v-2c0-.55228475.44771525-1 1-1 .5522847 0 1 .44771525 1 1v2c0 .55228475-.4477153 1-1 1z"/><path id="Shape" d="m16 4c-.5522847 0-1-.44771525-1-1v-2c0-.55228475.4477153-1 1-1s1 .44771525 1 1v2c0 .55228475-.4477153 1-1 1z"/><path id="Shape" d="m1 4c-.55228475 0-1-.44771525-1-1v-2c0-.55228475.44771525-1 1-1s1 .44771525 1 1v2c0 .55228475-.44771525 1-1 1z"/></g></g></svg>