<svg version="1.1" id="Layer_1" xmlns="http://www.w3.org/2000/svg" x="0" y="0" viewBox="0 0 512 512" xml:space="preserve"><style>.st0{fill:#fff}.st4{fill:#8eba98}</style><path class="st0" d="M256 0C114.6 0 0 114.6 0 256s114.6 256 256 256 256-114.6 256-256S397.4 0 256 0z"/><path d="M380 310.7v38.4H132v-38.4h248z" fill="#8ba9b7"/><path d="M380 148.4v162.3H132V148.4h248zM248.4 279.1v-94h-91.5v94h91.5z" fill="#b0cfe1"/><path d="M288.9 349.1l11 39.1h-87.7l11-39.1h65.7z" fill="#e0e0e0"/><path class="st0" d="M248.4 185.2v94h-91.5v-94h91.5zm-20.3 80.1v-18.7c0-6.8-5.5-12.3-12.3-12.3-3.1 4.2-8 6.7-13.2 6.7-5.2 0-10.1-2.5-13.2-6.7-6.8 0-12.3 5.5-12.3 12.3v18.7h51zm-11.8-52.7c0-7.5-6.1-13.7-13.7-13.7-7.5 0-13.7 6.1-13.7 13.7 0 7.5 6.1 13.7 13.7 13.7s13.7-6.1 13.7-13.7z"/><path class="st4" d="M228.1 246.6v18.7h-51v-18.7c0-6.8 5.5-12.3 12.3-12.3 3.1 4.2 8 6.7 13.2 6.7 5.2 0 10.1-2.5 13.2-6.7 6.8 0 12.3 5.5 12.3 12.3zM216.3 212.6c0 7.5-6.1 13.7-13.7 13.7-7.5 0-13.7-6.1-13.7-13.7 0-7.5 6.1-13.7 13.7-13.7 7.5.1 13.7 6.2 13.7 13.7zM318.2 392.5H193.8c-2.4 0-4.4-2-4.4-4.4s2-4.4 4.4-4.4h124.4c2.4 0 4.4 2 4.4 4.4s-2 4.4-4.4 4.4zM312 210.9h-48.3c-2.4 0-4.4-2-4.4-4.4 0-2.4 2-4.4 4.4-4.4H312c2.4 0 4.4 2 4.4 4.4-.1 2.4-2 4.4-4.4 4.4zM355.2 236.5h-91.5c-2.4 0-4.4-2-4.4-4.4 0-2.4 2-4.4 4.4-4.4h91.5c2.4 0 4.4 2 4.4 4.4-.1 2.5-2 4.4-4.4 4.4zM355.2 262.2h-91.5c-2.4 0-4.4-2-4.4-4.4 0-2.4 2-4.4 4.4-4.4h91.5c2.4 0 4.4 2 4.4 4.4-.1 2.4-2 4.4-4.4 4.4z"/></svg>