<svg version="1.1" id="Layer_1" xmlns="http://www.w3.org/2000/svg" x="0" y="0" viewBox="0 0 512 512" xml:space="preserve"><style>.st3{fill:#e6e7e8}.st4{fill:#8fb0c1}.st5{fill:#89cca4}.st6{fill:#e0f4ff}</style><path d="M256 0C114.6 0 0 114.6 0 256s114.6 256 256 256 256-114.6 256-256S397.4 0 256 0z" fill="#fff"/><path d="M152.6 137.2h206.9v253.9H152.6V137.2z" fill="#b9ced6"/><path d="M168.4 153.1h175.2v222.2H168.4V153.1z" fill="#f2f2f2"/><path class="st3" d="M248.1 311.4h79.2v15.8h-79.2v-15.8zM248.1 343.1h47.5v15.8h-47.5v-15.8z"/><path class="st4" d="M311.4 343.1h15.8v15.8h-15.8v-15.8z"/><path class="st5" d="M232.2 358.9h-47.5v-47.5h47.5v47.5z"/><path class="st3" d="M248.1 248.1h79.2v15.8h-79.2v-15.8zM248.1 279.8h47.5v15.8h-47.5v-15.8z"/><path class="st4" d="M311.4 279.8h15.8v15.8h-15.8v-15.8z"/><path class="st5" d="M232.2 295.6h-47.5v-47.5h47.5v47.5z"/><path class="st3" d="M248.1 184.7h79.2v15.8h-79.2v-15.8zM248.1 216.4h47.5v15.8h-47.5v-15.8z"/><path class="st4" d="M311.4 216.4h15.8v15.8h-15.8v-15.8z"/><path class="st5" d="M232.2 232.2h-47.5v-47.5h47.5v47.5z"/><path class="st6" d="M200.6 327.3h15.8v15.8h-15.8v-15.8zM200.6 263.9h15.8v15.8h-15.8v-15.8zM200.6 200.6h15.8v15.8h-15.8v-15.8z"/><path class="st5" d="M216.4 120.9h79.2v32.2h-79.2v-32.2z"/><path class="st5" d="M256 120.9h39.6v32.2H256v-32.2z"/></svg>