<svg version="1.1" id="Layer_1" xmlns="http://www.w3.org/2000/svg" x="0" y="0" viewBox="0 0 512 512" xml:space="preserve"><style>.st2{fill:#f0f0f0}.st3{fill:#89cca4}.st4{fill:#e6e7e8}.st5{fill:#8fb0c1}</style><path d="M256 0C114.6 0 0 114.6 0 256s114.6 256 256 256 256-114.6 256-256S397.4 0 256 0z" fill="#fff"/><path d="M155.6 145.5v234.9h191.8V145.5H155.6z" fill="#b9ced6"/><path class="st2" d="M170.2 160.2h162.5v205.5H170.2V160.2z"/><path class="st3" d="M229 233.6h-44v-44h44v44zM229 292.3h-44v-44h44v44z"/><path class="st4" d="M251 189.6h67v14.7h-67v-14.7zM251 218.9h67v14.7h-67v-14.7zM251 248.3h37.7V263H251v-14.7z"/><path class="st3" d="M229 351h-44v-44h44v44z"/><path class="st2" d="M398.7 314.3c0 32.4-26.3 58.7-58.7 58.7s-58.7-26.3-58.7-58.7 26.3-58.7 58.7-58.7 58.7 26.3 58.7 58.7z"/><path class="st4" d="M251 277.6h7.3v14.7H251v-14.7zM251 307h7.3v14.7H251V307zM251 336.4h7.3V351H251v-14.6z"/><path class="st5" d="M340 248.3c-36.4 0-66.1 29.7-66.1 66.1 0 36.4 29.7 66.1 66.1 66.1s66.1-29.7 66.1-66.1c0-36.5-29.7-66.1-66.1-66.1zm0 117.4c-28.3 0-51.4-23-51.4-51.4 0-28.3 23-51.4 51.4-51.4s51.4 23 51.4 51.4-23 51.4-51.4 51.4z"/><path class="st5" d="M406.1 314.3c0 36.4-29.7 66.1-66.1 66.1v-14.7c28.3 0 51.4-23 51.4-51.4 0-28.3-23-51.4-51.4-51.4v-14.7c36.4.1 66.1 29.7 66.1 66.1z"/><path class="st5" d="M362 307v14.7h-29.4v-44h14.7V307H362z"/><path class="st5" d="M362 321.7h-22v-44h7.3V307H362v14.7z"/><path class="st3" d="M210 129.8h82v33.3h-82v-33.3z"/></svg>