<svg version="1.1" id="Layer_1" xmlns="http://www.w3.org/2000/svg" x="0" y="0" viewBox="0 0 512 512" xml:space="preserve"><style>.st1{fill:#b9ced6}.st2{fill:#8fb0c1}.st3{fill:#dadddf}.st7{fill:#5eb3d1}.st8{fill:#e6e7e8}</style><path d="M256 0C114.6 0 0 114.6 0 256s114.6 256 256 256 256-114.6 256-256S397.4 0 256 0z" fill="#fff"/><path class="st1" d="M188.4 162.5h135.2v175H188.4v-175z"/><path class="st2" d="M188.4 329.6v8h135.2V194.4L188.4 329.6z"/><path class="st3" d="M323.6 154.6c0-8.8-7.1-15.9-15.9-15.9H204.3c-8.8 0-15.9 7.1-15.9 15.9v8h135.2v-8zM188.4 337.5v15.9c0 8.8 7.1 15.9 15.9 15.9h103.4c8.8 0 15.9-7.1 15.9-15.9v-15.9H188.4z"/><path d="M252 349.5h8v8h-8v-8z" fill="#c1c7c9"/><path d="M140.7 273.9v-71.6c0-8.8 7.1-15.9 15.9-15.9h127.3c8.8 0 15.9 7.1 15.9 15.9v71.6c0 8.8-7.1 15.9-15.9 15.9H156.6c-8.8 0-15.9-7.1-15.9-15.9z" fill="#89cca4"/><path d="M283.8 186.4L180.4 289.8h103.4c8.8 0 15.9-7.1 15.9-15.9v-71.6c0-8.8-7.1-15.9-15.9-15.9z" fill="#76ad8c"/><path class="st2" d="M298.3 195.8c.9 2 1.4 4.3 1.4 6.5v71.6c0 8.8-7.1 15.9-15.9 15.9h-95.4v8h103.4c8.8 0 15.9-7.1 15.9-15.9v-71.6c0-6.3-3.7-11.9-9.4-14.5z"/><path class="st1" d="M156.6 202.3h23.9v23.9h-23.9v-23.9z"/><path class="st7" d="M156.6 238.1h15.9v8h-15.9v-8zM156.6 258h15.9v8h-15.9v-8zM224.2 258h15.9v8h-15.9v-8zM180.4 238.1h15.9v8h-15.9v-8zM204.3 238.1h15.9v8h-15.9v-8zM228.2 238.1h15.9v8h-15.9v-8zM252 238.1h15.9v8H252v-8zM275.9 202.3h8v8h-8v-8zM260 202.3h8v8h-8v-8zM244.1 202.3h8v8h-8v-8zM228.2 202.3h8v8h-8v-8z"/><path class="st3" d="M283.8 265.9c0 4.4-3.6 8-8 8s-8-3.6-8-8 3.6-8 8-8c4.5.1 8 3.6 8 8z"/><path class="st8" d="M267.9 265.9c0 4.4-3.6 8-8 8s-8-3.6-8-8 3.6-8 8-8c4.5.1 8 3.6 8 8zM156.6 220.2v6h23.9v-23.9h-6l-17.9 17.9z"/><path d="M361.5 275.7l-37.9-41.6v51.7l-13.9-13.9c-5.6-5.4-14.5-5.3-19.9.3-5.3 5.5-5.3 14.1 0 19.6l33.8 33.8-2.4 4.7c-6.1 12.2-6.7 26.4-1.6 39v4h51.7v-71.4c0-9.6-3.5-18.9-9.8-26.2z" fill="#ffb782"/><path d="M347.5 313.7c-1.1 0-2.1-.4-2.8-1.2l-23.9-23.9c-1.5-1.6-1.5-4.1.1-5.6 1.5-1.5 4-1.5 5.5 0l23.9 23.9c1.6 1.6 1.6 4.1 0 5.6-.8.7-1.8 1.2-2.8 1.2z" fill="#f2a46f"/></svg>