<svg version="1.1" id="Layer_1" xmlns="http://www.w3.org/2000/svg" x="0" y="0" viewBox="0 0 512 512" xml:space="preserve"><style>.st2{fill:#fff}.st4{fill:#b0cfe1}</style><path d="M256 0C114.6 0 0 114.6 0 256s114.6 256 256 256 256-114.6 256-256S397.4 0 256 0z" fill="#faf9f6"/><path d="M353.5 395.6H155.4c-2 0-3.7-1.6-3.7-3.7v-251c0-2 1.6-3.7 3.7-3.7h198.2c2 0 3.7 1.6 3.7 3.7V392c-.2 2-1.8 3.6-3.8 3.6z" fill="#d8d1d0"/><path class="st2" d="M303 162.2v33.6h34.3v174.9H174.7V162.2z"/><path fill="#efe7e4" d="M303 162.2l34.3 33.6H303z"/><path class="st4" d="M200.9 303.4H311v8.3H200.9zM200.9 319.5H311v8.3H200.9zM200.9 335.6H311v8.3H200.9z"/><path d="M281.9 224.8h-4.8v-6.4c0-12.4-10.1-22.6-22.6-22.6s-22.6 10.1-22.6 22.6v6.4h-4.8c-.9 0-1.6.7-1.6 1.6v40.3c0 3.6 2.9 6.4 6.4 6.4H277c3.6 0 6.4-2.9 6.4-6.4v-40.3c.1-.9-.6-1.6-1.5-1.6zm-14.5 0h-25.8v-6.4c0-7.1 5.8-12.9 12.9-12.9s12.9 5.8 12.9 12.9v6.4z" fill="#8eba98"/><g><path class="st2" d="M263.7 262.1c-.1.2-.3.4-.6.5-.6.3-1.4.5-2.6.6-1.2.2-2.3.2-3.2.2-2.9 0-5.2-.8-6.9-2.3-1.7-1.5-2.5-3.6-2.5-6.2 0-2.3.6-4.4 1.8-6.1.8-1.1 2-2.2 3.7-3.5 2.9-2 4.3-3.5 4.3-4.5 0-.5-.2-1-.7-1.3-.5-.4-1.2-.5-2.3-.5-.5 0-.9 0-1.2.1-.3 0-.9.2-2 .4l-1.8.4c-.4 0-.6-.2-.6-.5v-4.1c0-.6.9-1.1 2.6-1.5 1.1-.2 2.3-.3 3.5-.3 2.7 0 4.8.7 6.4 2 1.6 1.3 2.4 3.3 2.4 5.9 0 1.9-.5 3.4-1.4 4.7-.7 1-2 2.1-3.8 3.5-.5.4-1.3.9-2.4 1.7-1.5 1.1-2.2 2.4-2.2 3.7 0 .9.3 1.6 1 2.1s1.5.8 2.7.8c.5 0 1.2-.1 2.1-.2.9-.1 1.5-.3 2-.4.1 0 .3-.1.6-.2s.5-.1.7-.1c.2 0 .4.1.5.2.2.1.3.4.3.7v3.8c-.3 0-.3.2-.4.4z"/><path class="st2" d="M246.7 249.6H265v3.4h-18.3zM246.7 243.9H265v3.4h-18.3z"/></g></svg>