<svg version="1.1" id="Layer_1" xmlns="http://www.w3.org/2000/svg" x="0" y="0" viewBox="0 0 512 512" xml:space="preserve"><style>.st1{fill:#ffb782}.st2{fill:#8caebf}.st3{fill:#b0cfe1}.st6{fill:#ddd9d9}</style><path d="M256 0C114.6 0 0 114.6 0 256s114.6 256 256 256 256-114.6 256-256S397.4 0 256 0z" fill="#faf9f6"/><path class="st1" d="M342 213.3l-37.3-37.4v149.9h50v-82.1c-.1-11.4-4.6-22.3-12.7-30.4z"/><path class="st2" d="M176.8 298.5l-28.2-73.3c-2.8-7.4.8-15.6 8.2-18.5L290 155.5c7.4-2.8 15.6.8 18.5 8.2l28.2 73.3c2.8 7.4-.8 15.6-8.2 18.5l-133.2 51.3c-7.4 2.7-15.7-.9-18.5-8.3z"/><path class="st3" d="M318.6 190.1L158.8 252l10.6 27.6 159.7-61.9-10.5-27.6z"/><path d="M147.6 247.3v-78.5c0-7.9 6.4-14.3 14.3-14.3h142.8c7.9 0 14.3 6.4 14.3 14.3v78.5c0 7.9-6.4 14.3-14.3 14.3H161.9c-7.9 0-14.3-6.4-14.3-14.3z" fill="#8eba98"/><path d="M304.6 154.5h-15.2l-107 107.1h122.2c7.9 0 14.3-6.4 14.3-14.3v-78.5c0-7.9-6.4-14.3-14.3-14.3z" fill="#72a07b"/><path class="st6" d="M161.9 211.6h14.3v7.1h-14.3v-7.1zM161.9 233h14.3v7.1h-14.3V233zM226.1 233h14.3v7.1h-14.3V233zM183.3 211.6h14.3v7.1h-14.3v-7.1zM204.7 211.6H219v7.1h-14.3v-7.1zM226.1 211.6h14.3v7.1h-14.3v-7.1zM293.9 168.8h7.1v10.7h-7.1v-10.7zM279.6 168.8h7.1v10.7h-7.1v-10.7zM265.4 168.8h7.1v10.7h-7.1v-10.7zM251.1 168.8h7.1v10.7h-7.1v-10.7z"/><path class="st3" d="M290.4 325.8h64.2v35.7h-64.2v-35.7z"/><path class="st1" d="M279.9 219c-6.1-6-15.9-6-21.9 0-5.8 5.9-6 15.3-.5 21.4l29.2 31.9c-8.8 15.4-8.4 34.4 1 49.4l2.6 4.2h46.4v-50L279.9 219z"/><path class="st2" d="M301.1 336.5h7.1v7.1h-7.1v-7.1z"/><path class="st3" d="M161.9 191.6v-17.1c0-3.2 2.6-5.7 5.7-5.7h17.1c3.2 0 5.7 2.6 5.7 5.7v17.1c0 3.2-2.6 5.7-5.7 5.7h-17.1c-3.2 0-5.7-2.5-5.7-5.7z"/><path class="st1" d="M161.9 179.5h10.7v7.1h-10.7v-7.1zM179.7 179.5h10.7v7.1h-10.7v-7.1z"/><path d="M333.2 275.9c-.9 0-1.9-.4-2.5-1l-14.3-14.3c-1.4-1.4-1.3-3.7.1-5 1.4-1.3 3.6-1.3 5 0l14.3 14.3c1.4 1.4 1.4 3.7 0 5-.8.6-1.7 1-2.6 1z" fill="#f2a46f"/></svg>