<svg version="1.1" id="Capa_1" xmlns="http://www.w3.org/2000/svg" x="0" y="0" viewBox="0 0 552.9 370.5" xml:space="preserve"><style>.st0{fill:#04915c}.st1{fill:#626363}</style><path class="st0" d="M193.7 207.3h-128c-5.9 0-10.7 4.8-10.7 10.7s4.8 10.7 10.7 10.7h128c5.9 0 10.7-4.8 10.7-10.7s-4.8-10.7-10.7-10.7zM17.4 104.7h486.1c-4.7-6-7.3-13.5-8.3-21.3H12.3c1.9 7 3.7 14.1 5.1 21.3zM193.7 250h-128c-5.9 0-10.7 4.8-10.7 10.7s4.8 10.7 10.7 10.7h128c5.9 0 10.7-4.8 10.7-10.7-.1-5.9-4.8-10.7-10.7-10.7zM300.8 208H265c-1.6 0-3 4.8-3 10.7s1.3 10.7 3 10.7h35.8c1.6 0 3-4.8 3-10.7s-1.3-10.7-3-10.7zM300.8 250.7H265c-1.6 0-3 4.8-3 10.7s1.3 10.7 3 10.7h35.8c1.6 0 3-4.8 3-10.7 0-6-1.3-10.7-3-10.7z"/><path class="st0" d="M53.3 320c-17.6 0-32-14.4-32-32V53.3c0-17.6 14.4-32 32-32h405.3c17.6 0 32 14.4 32 32v83.8c7.4 2.4 14.5 5.4 21.3 8.9V53.3C512 23.9 488.1 0 458.7 0H53.3C23.9 0 0 23.9 0 53.3V288c0 29.4 23.9 53.3 53.3 53.3h282c-4.4-6.7-8.3-13.9-11.5-21.3H53.3z"/><path class="st1" d="M443 154.3c-58.7 0-106.4 47.7-106.4 106.4S384.3 367 443 367s106.4-47.7 106.4-106.4S501.7 154.3 443 154.3zm0 198.7c-50.9 0-92.4-41.4-92.4-92.4s41.4-92.4 92.4-92.4 92.4 41.4 92.4 92.4S493.9 353 443 353z"/><path class="st1" d="M443 370.5c-60.6 0-109.9-49.3-109.9-109.9 0-60.6 49.3-109.9 109.9-109.9S552.9 200 552.9 260.6c0 60.7-49.3 109.9-109.9 109.9zm0-212.7c-56.7 0-102.9 46.2-102.9 102.9S386.3 363.5 443 363.5s102.9-46.2 102.9-102.9S499.7 157.8 443 157.8zm0 198.7c-52.9 0-95.9-43-95.9-95.9 0-52.9 43-95.9 95.9-95.9s95.9 43 95.9 95.9c0 52.9-43 95.9-95.9 95.9zm0-184.7c-49 0-88.9 39.9-88.9 88.9 0 49 39.9 88.9 88.9 88.9s88.9-39.9 88.9-88.9c0-49-39.9-88.9-88.9-88.9z"/><g><path class="st1" d="M449.6 258.2V227c3.1 1.2 5.8 3.3 7.7 6.1 1.7 2.5 5.1 3.2 7.6 1.6 2.5-1.7 3.2-5.1 1.6-7.6-3.9-6-10-10.1-16.9-11.5v-8.7c0-3-2.5-5.5-5.5-5.5s-5.5 2.5-5.5 5.5v8.7c-12.2 2.5-21.3 13.3-21.3 26.2s9.2 23.7 21.3 26.2v31.2c-3.1-1.2-5.8-3.3-7.7-6.1-1.7-2.5-5.1-3.2-7.6-1.6-2.5 1.7-3.2 5.1-1.6 7.6 3.9 6 10 10.1 16.9 11.5v8.7c0 3 2.5 5.5 5.5 5.5s5.5-2.5 5.5-5.5v-8.7c12.2-2.5 21.3-13.3 21.3-26.2s-9.2-23.6-21.3-26.2zm-21.3-16.3c0-6.8 4.3-12.6 10.3-14.8v29.6c-6-2.3-10.3-8.1-10.3-14.8zm21.3 57.4v-29.6c6 2.2 10.3 8 10.3 14.8s-4.3 12.5-10.3 14.8z"/><path class="st1" d="M444.1 326.8c-4.1 0-7.5-3.3-7.5-7.5v-7.2c-6.8-1.8-12.6-6-16.6-12-1.1-1.7-1.5-3.7-1.1-5.6.4-1.9 1.5-3.6 3.2-4.7 1.7-1.1 3.7-1.5 5.6-1.1 1.9.4 3.6 1.5 4.7 3.2 1.1 1.6 2.5 3 4.1 4.1v-26.5c-12.4-3.3-21.3-14.8-21.3-27.8s8.9-24.4 21.3-27.8v-7.2c0-4.1 3.3-7.5 7.5-7.5s7.5 3.3 7.5 7.5v7.2c6.8 1.8 12.6 6 16.6 12 1.1 1.7 1.5 3.7 1.1 5.6s-1.5 3.6-3.2 4.7c-3.4 2.3-8.1 1.3-10.3-2.1-1.1-1.6-2.5-3-4.1-4.1v26.5c12.4 3.3 21.3 14.8 21.3 27.8s-8.9 24.4-21.3 27.8v7.2c0 4.2-3.4 7.5-7.5 7.5zm-17.8-34.2c-.7 0-1.3.2-1.9.6-.8.5-1.3 1.3-1.5 2.2-.2.9 0 1.9.5 2.7 3.6 5.5 9.2 9.3 15.6 10.6l1.6.3v10.3c0 1.9 1.6 3.5 3.5 3.5s3.5-1.6 3.5-3.5V309l1.6-.3c11.4-2.4 19.8-12.6 19.8-24.3 0-11.7-8.3-21.9-19.8-24.3l-1.6-.3v-35.6l2.6 1c3.6 1.3 6.6 3.7 8.7 6.9 1.1 1.6 3.3 2.1 4.9 1 .8-.5 1.3-1.3 1.5-2.2.2-.9 0-1.9-.5-2.7-3.6-5.5-9.2-9.3-15.6-10.7l-1.6-.3v-10.3c0-1.9-1.6-3.5-3.5-3.5s-3.5 1.6-3.5 3.5v10.3l-1.6.3c-11.4 2.4-19.8 12.6-19.8 24.3 0 11.7 8.3 21.9 19.8 24.3l1.6.3V302l-2.6-1c-3.6-1.3-6.6-3.7-8.7-6.9-.5-.8-1.3-1.3-2.2-1.5h-.8zm21.3 9.5v-35.3l2.6 1c6.9 2.6 11.6 9.3 11.6 16.6 0 7.4-4.7 14.1-11.6 16.6l-2.6 1.1zm4-29.3v23.3c3.9-2.5 6.4-6.9 6.4-11.7 0-4.7-2.5-9.1-6.4-11.6zm-11-13.3l-2.6-1c-6.9-2.6-11.6-9.3-11.6-16.6 0-7.4 4.7-14.1 11.6-16.6l2.6-1v35.2zm-4-29.3c-3.9 2.5-6.4 6.9-6.4 11.7 0 4.8 2.5 9.1 6.4 11.7v-23.4z"/></g></svg>