<svg version="1.1" id="Capa_1" xmlns="http://www.w3.org/2000/svg" x="0" y="0" viewBox="0 0 552.9 370.5" xml:space="preserve"><style>.st0{fill:#04915c}.st1{fill:#f79b21}</style><path class="st0" d="M193.7 207.3h-128c-5.9 0-10.7 4.8-10.7 10.7s4.8 10.7 10.7 10.7h128c5.9 0 10.7-4.8 10.7-10.7s-4.8-10.7-10.7-10.7zM17.4 104.7h486.1c-4.7-6-7.3-13.5-8.3-21.3H12.3c1.9 7 3.7 14.1 5.1 21.3zM193.7 250h-128c-5.9 0-10.7 4.8-10.7 10.7s4.8 10.7 10.7 10.7h128c5.9 0 10.7-4.8 10.7-10.7-.1-5.9-4.8-10.7-10.7-10.7zM300.8 208H265c-1.6 0-3 4.8-3 10.7s1.3 10.7 3 10.7h35.8c1.6 0 3-4.8 3-10.7s-1.3-10.7-3-10.7zM300.8 250.7H265c-1.6 0-3 4.8-3 10.7s1.3 10.7 3 10.7h35.8c1.6 0 3-4.8 3-10.7 0-6-1.3-10.7-3-10.7z"/><path class="st0" d="M53.3 320c-17.6 0-32-14.4-32-32V53.3c0-17.6 14.4-32 32-32h405.3c17.6 0 32 14.4 32 32v83.8c7.4 2.4 14.5 5.4 21.3 8.9V53.3C512 23.9 488.1 0 458.7 0H53.3C23.9 0 0 23.9 0 53.3V288c0 29.4 23.9 53.3 53.3 53.3h282c-4.4-6.7-8.3-13.9-11.5-21.3H53.3z"/><path class="st1" d="M451.7 255.9v-30.3c3 1.1 5.7 3.2 7.5 6 1.6 2.5 4.9 3.1 7.4 1.5s3.1-4.9 1.5-7.4c-3.8-5.8-9.7-9.8-16.4-11.2V206c0-2.9-2.4-5.3-5.3-5.3s-5.3 2.4-5.3 5.3v8.5c-11.8 2.5-20.7 12.9-20.7 25.5 0 12.5 8.9 23 20.7 25.5v30.3c-3-1.1-5.7-3.2-7.5-6-1.6-2.5-4.9-3.1-7.4-1.5s-3.1 4.9-1.5 7.4c3.8 5.8 9.7 9.8 16.4 11.2v8.5c0 2.9 2.4 5.3 5.3 5.3s5.3-2.4 5.3-5.3v-8.5c11.8-2.5 20.7-12.9 20.7-25.5s-8.9-23.1-20.7-25.5zM431 240c0-6.6 4.2-12.2 10-14.4v28.8c-5.8-2.2-10-7.8-10-14.4zm20.7 55.7V267c5.8 2.2 10 7.8 10 14.4 0 6.5-4.1 12.2-10 14.3z"/><path class="st1" d="M446.4 322.5c-4 0-7.2-3.2-7.2-7.2v-7c-6.6-1.8-12.3-5.8-16.1-11.6-1.1-1.6-1.4-3.5-1-5.4.4-1.9 1.5-3.5 3.1-4.6 1.6-1.1 3.5-1.4 5.4-1 1.9.4 3.5 1.5 4.6 3.1 1.1 1.6 2.4 2.9 4 3.9V267c-12.1-3.2-20.7-14.3-20.7-27 0-12.6 8.6-23.7 20.7-27v-7c0-4 3.2-7.2 7.2-7.2s7.2 3.2 7.2 7.2v7c6.6 1.8 12.3 5.8 16.1 11.6 1.1 1.6 1.4 3.5 1 5.4-.4 1.9-1.5 3.5-3.1 4.6-3.3 2.2-7.8 1.3-10-2.1-1.1-1.6-2.4-2.9-4-3.9v25.7c12.1 3.2 20.7 14.3 20.7 27 0 12.6-8.6 23.7-20.7 27v7c0 4-3.2 7.2-7.2 7.2zm-17.3-33.2c-.7 0-1.3.2-1.9.6-.8.5-1.3 1.3-1.5 2.2-.2.9 0 1.8.5 2.6 3.5 5.4 8.9 9 15.2 10.3l1.5.3v10c0 1.9 1.5 3.4 3.4 3.4s3.4-1.5 3.4-3.4v-10l1.5-.3c11.1-2.3 19.2-12.2 19.2-23.6 0-11.4-8.1-21.3-19.2-23.6l-1.5-.3v-34.6l2.6 1c3.5 1.3 6.4 3.6 8.4 6.7 1 1.6 3.2 2 4.7 1 .8-.5 1.3-1.3 1.5-2.2.2-.9 0-1.8-.5-2.6-3.5-5.4-8.9-9-15.2-10.3l-1.5-.3v-10c0-1.9-1.5-3.4-3.4-3.4s-3.4 1.5-3.4 3.4v10l-1.5.3c-11.1 2.3-19.2 12.2-19.2 23.6 0 11.4 8.1 21.3 19.2 23.6l1.5.3v34.6l-2.6-1c-3.5-1.3-6.4-3.6-8.4-6.7-.5-.8-1.3-1.3-2.2-1.5-.1-.1-.4-.1-.6-.1zm20.7 9.2v-34.2l2.6 1c6.7 2.5 11.3 9 11.3 16.2 0 7.2-4.5 13.7-11.3 16.2l-2.6.8zm3.8-28.5v22.6c3.8-2.4 6.2-6.7 6.2-11.3 0-4.6-2.4-8.8-6.2-11.3zM443 257.1l-2.6-1c-6.7-2.5-11.3-9-11.3-16.2s4.5-13.7 11.3-16.2l2.6-1v34.4zm-3.9-28.4c-3.8 2.4-6.2 6.7-6.2 11.3 0 4.6 2.4 8.9 6.2 11.3v-22.6z"/><g><path class="st1" d="M443.1 158.7c-29.8 0-58.2 12.8-77.9 35.3-1.8 2-1.6 5 .4 6.9 2 1.8 5.1 1.6 6.9-.4 17.9-20.3 43.6-32 70.6-32 51.8 0 94 42.2 94 94s-42.2 94-94 94c-48.4 0-88.4-36.4-93.5-83.9l19.8 13.3c2.2 1.5 5.2.9 6.7-1.3.6-.8.8-1.8.8-2.7 0-1.6-.8-3.1-2.2-4l-30.3-23.6c-1.1-.7-2.4-1-3.7-.7-1.3.2-2.4 1-3.1 2.1l-18 33.3c-1.5 2.2-.9 5.2 1.4 6.7 2.2 1.5 5.2.9 6.7-1.4l12.4-18.6c6.5 51.4 50.2 90.6 102.9 90.6 57.2 0 103.7-46.5 103.7-103.7.1-57.4-46.4-103.9-103.6-103.9z"/><path class="st1" d="M443.1 371.2c-50.4 0-93.8-34.7-105.6-82.5L332 297c-1.5 2.2-3.7 3.7-6.3 4.2-2.6.5-5.2 0-7.4-1.5-4.4-3-5.7-8.9-2.9-13.4l18.2-33.6c1.5-2.2 3.7-3.7 6.3-4.2 2.6-.5 5.3.1 7.4 1.5l.3.2 30.2 23.5c2.6 1.9 4.2 4.9 4.2 8.1 0 2-.6 3.9-1.7 5.5-1.5 2.2-3.7 3.7-6.3 4.2-2.6.5-5.2 0-7.4-1.5l-10.1-6.8c9.4 39.6 44.8 68.2 86.6 68.2 49.1 0 89-39.9 89-89s-39.9-89-89-89c-25.6 0-50 11-66.9 30.3-3.7 4.1-9.9 4.5-13.9.9-4.1-3.7-4.4-9.9-.9-13.9 20.6-23.5 50.4-37 81.7-37h.1c29 0 56.3 11.3 76.8 31.9 20.6 20.6 31.9 47.8 31.9 76.8-.1 60-48.8 108.8-108.8 108.8zM341.8 258.5l-16.3 30.1 18-27 .1.9 24.9 16.7-26.7-20.7z"/></g></svg>