<svg version="1.1" id="Capa_1" xmlns="http://www.w3.org/2000/svg" x="0" y="0" viewBox="0 0 552.9 370.5" xml:space="preserve"><style>.st0{fill:#04915c}.st1{fill:#e1e84d}</style><path class="st0" d="M193.7 207.3h-128c-5.9 0-10.7 4.8-10.7 10.7s4.8 10.7 10.7 10.7h128c5.9 0 10.7-4.8 10.7-10.7s-4.8-10.7-10.7-10.7zM17.4 104.7h486.1c-4.7-6-7.3-13.5-8.3-21.3H12.3c1.9 7 3.7 14.1 5.1 21.3zM193.7 250h-128c-5.9 0-10.7 4.8-10.7 10.7s4.8 10.7 10.7 10.7h128c5.9 0 10.7-4.8 10.7-10.7-.1-5.9-4.8-10.7-10.7-10.7zM300.8 208H265c-1.6 0-3 4.8-3 10.7s1.3 10.7 3 10.7h35.8c1.6 0 3-4.8 3-10.7s-1.3-10.7-3-10.7zM300.8 250.7H265c-1.6 0-3 4.8-3 10.7s1.3 10.7 3 10.7h35.8c1.6 0 3-4.8 3-10.7 0-6-1.3-10.7-3-10.7z"/><path class="st0" d="M53.3 320c-17.6 0-32-14.4-32-32V53.3c0-17.6 14.4-32 32-32h405.3c17.6 0 32 14.4 32 32v83.8c7.4 2.4 14.5 5.4 21.3 8.9V53.3C512 23.9 488.1 0 458.7 0H53.3C23.9 0 0 23.9 0 53.3V288c0 29.4 23.9 53.3 53.3 53.3h282c-4.4-6.7-8.3-13.9-11.5-21.3H53.3z"/><path class="st1" d="M443 155c-58.7 0-106.4 47.7-106.4 106.4S384.3 367.7 443 367.7 549.4 320 549.4 261.3 501.7 155 443 155zm0 198.7c-50.9 0-92.4-41.4-92.4-92.4S392.1 169 443 169s92.4 41.4 92.4 92.4-41.5 92.3-92.4 92.3z"/><path class="st1" d="M443 371.2c-60.6 0-109.9-49.3-109.9-109.9 0-60.6 49.3-109.9 109.9-109.9s109.9 49.3 109.9 109.9c0 60.6-49.3 109.9-109.9 109.9zm0-212.7c-56.7 0-102.9 46.2-102.9 102.9S386.3 364.2 443 364.2 545.9 318 545.9 261.3 499.7 158.5 443 158.5zm0 198.7c-52.9 0-95.9-43-95.9-95.9 0-52.9 43-95.9 95.9-95.9s95.9 43 95.9 95.9c0 52.9-43 95.9-95.9 95.9zm0-184.7c-49 0-88.9 39.9-88.9 88.9 0 49 39.9 88.9 88.9 88.9s88.9-39.9 88.9-88.9c0-49.1-39.9-88.9-88.9-88.9z"/><g><path d="M397.8 267.6l9.3-9.3 20.9 20.9 51-53.3 9.3 9.3-60.3 60.3c-11.7-9.3-20.9-18.6-30.2-27.9z" fill="#e1e84d" stroke="#e1e84d" stroke-width="7" stroke-miterlimit="10"/></g></svg>